<svg xmlns="http://www.w3.org/2000/svg" width="150" height="20" viewBox="0 0 150 20">
    <g fill="none" fill-rule="evenodd">
        <g fill="#000" fill-rule="nonzero">
            <g>
                <path d="M41.94 15.044c-.802.591-1.822.887-3.06.887-1.528 0-2.726-.546-3.593-1.637-.867-1.092-1.3-2.595-1.296-4.51v-.273c0-1.894.441-3.392 1.323-4.493.882-1.1 2.09-1.652 3.622-1.653 1.165 0 2.134.277 2.908.832.774.555 1.309 1.473 1.606 2.753h3.568c-.4-2.239-1.318-3.92-2.752-5.046C42.832.778 41.064.22 38.963.229c-1.2-.014-2.391.22-3.497.688-1.03.435-1.952 1.087-2.705 1.913-.775.868-1.37 1.882-1.75 2.982-.431 1.238-.644 2.542-.628 3.853-.014 1.31.194 2.611.615 3.851.37 1.099.955 2.112 1.722 2.982.74.82 1.648 1.472 2.663 1.91 1.078.466 2.241.7 3.415.688 2.205 0 4.05-.573 5.532-1.72 1.483-1.147 2.4-2.905 2.753-5.275h-3.578c-.24 1.37-.762 2.35-1.565 2.943zM48.798.333H52.213V18.721H48.798zM54.727.633H58.251999999999995V3.938H54.727zM54.78 5.823H58.195V18.717H54.78zM68.482 15.55c-.43.436-1.097.656-2.007.656-.868.031-1.691-.38-2.186-1.094-.53-.727-.794-1.656-.794-2.786v-.11c0-1.129.283-2.058.847-2.787.524-.707 1.36-1.115 2.24-1.092.785 0 1.381.214 1.79.642.44.482.749 1.07.894 1.707l3.195-.984c-.396-1.174-1.121-2.209-2.09-2.982-.957-.755-2.209-1.133-3.756-1.133-.907-.011-1.807.155-2.65.491-.773.308-1.472.777-2.05 1.376-.577.611-1.027 1.33-1.323 2.117-.326.854-.489 1.762-.48 2.677 0 1.987.575 3.604 1.723 4.85 1.148 1.247 2.714 1.87 4.697 1.872 1.62 0 2.92-.392 3.9-1.176 1.006-.817 1.756-1.908 2.157-3.14l-3.197-.918c-.132.677-.447 1.304-.91 1.814zM85.899 5.823L82.073 5.823 77.456 11.479 77.456.333 74.151.333 74.151 18.718 77.456 18.718 77.456 15.14 79.259 13.037 82.539 18.718 86.2 18.718 81.445 10.658zM97.865 15.044c-.802.591-1.821.887-3.06.887-1.529 0-2.726-.546-3.592-1.637-.865-1.092-1.3-2.595-1.305-4.51v-.273c0-1.894.441-3.392 1.324-4.493.882-1.1 2.09-1.652 3.621-1.653 1.165 0 2.135.277 2.908.832.774.555 1.31 1.473 1.606 2.753h3.58c-.4-2.239-1.318-3.92-2.752-5.046C98.761.778 96.992.22 94.888.229c-1.201-.014-2.392.22-3.498.688-1.03.435-1.952 1.087-2.704 1.913-.776.868-1.37 1.882-1.75 2.982-.43 1.238-.643 2.542-.629 3.853-.01 1.304.199 2.6.62 3.835.37 1.099.955 2.112 1.722 2.982.74.82 1.649 1.472 2.663 1.91 1.078.466 2.241.7 3.415.688 2.205 0 4.049-.573 5.532-1.72 1.483-1.147 2.4-2.905 2.752-5.275h-3.578c-.244 1.38-.767 2.367-1.568 2.959zM104.722.333H108.137V18.721H104.722zM120.541 6.78c-1.001-.8-2.377-1.2-4.128-1.202-1.803 0-3.246.446-4.33 1.34-1.07.858-1.696 2.151-1.707 3.522h3.363v-.19c.028-.551.275-1.068.688-1.436.429-.39 1.08-.587 1.954-.587.874 0 1.497.151 1.871.459.338.233.545.613.56 1.023v.137c-.037.346-.36.587-.97.725s-1.505.322-2.684.553c-.73.163-1.403.337-2.02.518-.57.158-1.11.403-1.606.725-.438.291-.8.685-1.053 1.147-.275.555-.406 1.17-.383 1.789-.031 1.04.417 2.038 1.216 2.706.812.693 1.9 1.038 3.266 1.037.87.019 1.734-.163 2.523-.532.704-.334 1.293-.871 1.69-1.542v1.748h3.253v-8.114c0-1.75-.501-3.025-1.503-3.826zm-1.722 6.612c0 .525-.117 1.043-.342 1.516-.191.388-.466.728-.805.996-.324.253-.695.44-1.092.548-.392.107-.797.162-1.204.163-.493.033-.98-.112-1.376-.409-.318-.262-.496-.657-.482-1.068-.03-.508.222-.992.656-1.257.514-.302 1.07-.523 1.652-.654.527-.127 1.07-.26 1.626-.397.482-.108.946-.287 1.376-.532l-.01 1.094zM132.138 15.55c-.427.436-1.097.656-2.007.656-.868.031-1.691-.38-2.186-1.094-.528-.727-.792-1.656-.794-2.786v-.11c0-1.129.283-2.058.849-2.787.523-.708 1.359-1.115 2.239-1.092.784 0 1.381.214 1.79.642.438.483.744 1.071.888 1.707l3.198-.984c-.398-1.174-1.124-2.208-2.092-2.982-.957-.755-2.21-1.133-3.757-1.133-.907-.011-1.807.155-2.649.491-.773.308-1.471.777-2.048 1.376-.578.611-1.028 1.33-1.326 2.117-.326.854-.488 1.762-.48 2.677 0 1.987.575 3.604 1.723 4.85 1.149 1.247 2.715 1.87 4.7 1.872 1.619 0 2.919-.392 3.899-1.176 1.007-.817 1.757-1.907 2.158-3.14l-3.197-.918c-.131.677-.446 1.304-.908 1.814zM145.101 10.658L149.555 5.823 145.729 5.823 141.112 11.479 141.112.333 137.807.333 137.807 18.718 141.112 18.718 141.112 15.14 142.917 13.037 146.195 18.718 149.856 18.718zM10.174 0H0v19.344h23.782V2.732l-12.888-.014L10.174 0zm10.168 15.904H3.44V3.44h4.088l.729 2.716 12.094.011-.01 9.737z" transform="translate(-70 -60) translate(70 60)"/>
            </g>
        </g>
    </g>
</svg>
